#define _width 9
#define _height 7
static char _bits[] = {
 0xc0,0x00,0x00,0x01,0x80,0x00,0x0e,0x01,0xd5,0x00,0x15,0x00,0x15,0x00 };
