#define _width 10
#define _height 7
static char _bits[] = {
 0xe0,0x03,0x80,0x00,0x80,0x00,0x84,0x00,0x8a,0x00,0x91,0x00,0x9f,0x00 };
