#define _width 8
#define _height 7
static char _bits[] = {
 0x0f,0x01,0x51,0x51,0x51,0xf1,0x80 };
