#define _width 9
#define _height 25
static char _bits[] = {
 0x10,0x00,0x28,0x00,0x44,0x00,0x44,0x00,0x44,0x00,0x44,0x00,0x44,0x00,0x44,
 0x00,0x44,0x00,0x44,0x00,0x44,0x00,0x44,0x00,0x54,0x00,0x54,0x00,0x54,0x00,
 0x54,0x00,0x54,0x00,0x92,0x00,0x39,0x01,0x7d,0x01,0x7d,0x01,0x39,0x01,0x92,
 0x00,0x44,0x00,0x38,0x00 };
