#define _width 21
#define _height 25
static char _bits[] = {
 0x10,0xc2,0x1f,0x28,0x06,0x10,0x44,0xce,0x1f,0x44,0x5e,0x00,0x54,0xce,0x1f,
 0x44,0x06,0x10,0x54,0xc2,0x1f,0x44,0x00,0x00,0x54,0x00,0x00,0x44,0xd0,0x1f,
 0x54,0x18,0x10,0x44,0xdc,0x1f,0x54,0x5e,0x00,0x54,0xdc,0x1f,0x54,0x18,0x10,
 0x54,0xd0,0x1f,0x54,0x00,0x00,0x92,0x00,0x00,0x39,0x01,0x1f,0x7d,0x01,0x04,
 0x7d,0x01,0x04,0x39,0x21,0x04,0x92,0x50,0x04,0x44,0x88,0x04,0x38,0xf8,0x04 };
