STARTFONT 2.1
COMMENT Exported by Fony v1.4.7
FONT DS-Digital-mod1
SIZE 31 96 96
FONTBOUNDINGBOX 16 30 0 -5
STARTPROPERTIES 6
COPYRIGHT ""
RESOLUTION_X 96
RESOLUTION_Y 96
FONT_ASCENT 26
FONT_DESCENT 5
DEFAULT_CHAR 0
ENDPROPERTIES
CHARS 10
STARTCHAR 048
ENCODING 48
SWIDTH 1152 0
DWIDTH 16 0
BBX 14 24 1 1
BITMAP
7FF8
BFF4
DFEC
E01C
E01C
E01C
E01C
E01C
E01C
C00C
8004
0000
8004
C00C
E01C
E01C
E01C
E01C
E01C
E01C
E01C
DFEC
BFF4
7FF8
ENDCHAR
STARTCHAR 049
ENCODING 49
SWIDTH 1152 0
DWIDTH 16 0
BBX 3 24 12 1
BITMAP
20
60
E0
E0
E0
E0
E0
E0
E0
E0
60
20
00
20
60
E0
E0
E0
E0
E0
E0
E0
60
20
ENDCHAR
STARTCHAR 050
ENCODING 50
SWIDTH 1152 0
DWIDTH 16 0
BBX 14 24 1 1
BITMAP
FFF8
7FF4
3FEC
001C
001C
001C
001C
001C
001C
1FEC
3FF4
7FF8
BFF0
C000
E000
E000
E000
E000
E000
E000
E000
DFE0
BFF0
7FF8
ENDCHAR
STARTCHAR 051
ENCODING 51
SWIDTH 1152 0
DWIDTH 16 0
BBX 13 24 2 1
BITMAP
FFF0
7FE8
3FD8
0038
0038
0038
0038
0038
0038
3FD8
7FE8
FFF0
7FE8
0018
0038
0038
0038
0038
0038
0038
0038
3FD8
7FE8
FFF0
ENDCHAR
STARTCHAR 052
ENCODING 52
SWIDTH 1152 0
DWIDTH 16 0
BBX 14 22 1 2
BITMAP
8004
C00C
E01C
E01C
E01C
E01C
E01C
E01C
DFEC
BFF4
7FF8
1FF4
000C
001C
001C
001C
001C
001C
001C
001C
000C
0004
ENDCHAR
STARTCHAR 053
ENCODING 53
SWIDTH 1152 0
DWIDTH 16 0
BBX 14 24 1 1
BITMAP
7FF8
BFF0
DFE0
E000
E000
E000
E000
E000
E000
DFE0
BFF0
7FF8
3FF4
000C
001C
001C
001C
001C
001C
001C
001C
1FEC
3FF4
7FF8
ENDCHAR
STARTCHAR 054
ENCODING 54
SWIDTH 1152 0
DWIDTH 16 0
BBX 14 24 1 1
BITMAP
7FF8
BFF0
DFE0
E000
E000
E000
E000
E000
E000
DFE0
BFF0
7FF8
BFF4
C00C
E01C
E01C
E01C
E01C
E01C
E01C
E01C
DFEC
BFF4
7FF8
ENDCHAR
STARTCHAR 055
ENCODING 55
SWIDTH 1152 0
DWIDTH 16 0
BBX 13 23 2 2
BITMAP
FFF0
7FE8
3FD8
0038
0038
0038
0038
0038
0018
0008
0000
0008
0018
0038
0038
0038
0038
0038
0038
0038
0038
0018
0008
ENDCHAR
STARTCHAR 056
ENCODING 56
SWIDTH 1152 0
DWIDTH 16 0
BBX 14 24 1 1
BITMAP
7FF8
BFF4
DFEC
E01C
E01C
E01C
E01C
E01C
E01C
DFEC
BFF4
7FF8
BFF4
C00C
E01C
E01C
E01C
E01C
E01C
E01C
E01C
DFEC
BFF4
7FF8
ENDCHAR
STARTCHAR 057
ENCODING 57
SWIDTH 1152 0
DWIDTH 16 0
BBX 14 24 1 1
BITMAP
7FF8
BFF4
DFEC
E01C
E01C
E01C
E01C
E01C
E01C
DFEC
BFF4
7FF8
3FF4
000C
001C
001C
001C
001C
001C
001C
001C
1FEC
3FF4
7FF8
ENDCHAR
ENDFONT
